<?xml version="1.0" standalone="no"?>
<!DOCTYPE svg PUBLIC "-//W3C//DTD SVG 20010904//EN"
 "http://www.w3.org/TR/2001/REC-SVG-20010904/DTD/svg10.dtd">
<svg version="1.0" xmlns="http://www.w3.org/2000/svg"
 width="300.000000pt" height="300.000000pt" viewBox="0 0 300.000000 300.000000"
 preserveAspectRatio="xMidYMid meet">
<metadata>
Created by potrace 1.11, written by Peter Selinger 2001-2013
</metadata>
<g transform="translate(0.000000,300.000000) scale(0.100000,-0.100000)"
fill="#000000" stroke="none">
<path d="M645 2980 c-158 -21 -266 -60 -309 -111 -15 -18 -49 -42 -75 -55 -50
-23 -85 -62 -96 -106 -15 -57 46 -535 145 -1153 81 -504 79 -493 91 -734 11
-251 22 -291 86 -318 60 -25 108 -27 158 -9 43 17 46 17 71 -3 43 -34 98 -35
255 -7 225 41 287 66 429 172 206 153 306 296 362 522 19 74 22 115 23 272 0
197 -9 258 -51 340 -28 55 -104 131 -162 160 -65 32 -185 60 -290 67 -51 3
-91 9 -90 12 2 3 22 44 45 91 62 126 77 193 77 340 1 106 -3 135 -22 190 -58
162 -186 285 -337 325 -63 16 -206 18 -310 5z m236 -327 c34 -13 46 -25 65
-67 59 -127 12 -320 -129 -524 -46 -67 -56 -76 -125 -107 -85 -40 -88 -40 -96
-20 -8 23 -73 497 -81 596 l-7 86 93 21 c52 11 103 23 114 25 47 11 128 6 166
-10z m459 -950 l65 -18 18 -85 c21 -103 25 -275 7 -350 -44 -191 -191 -341
-408 -414 -60 -21 -119 -35 -248 -61 -20 -4 -22 1 -33 133 -7 75 -28 249 -47
386 -19 136 -34 249 -32 250 2 2 28 8 57 14 77 18 136 49 182 99 38 41 59 51
149 67 50 9 227 -4 290 -21z"/>
<path d="M2503 665 c-139 -43 -238 -162 -262 -313 -22 -138 24 -254 122 -308
49 -27 59 -29 167 -29 83 1 125 5 151 17 84 37 150 126 169 228 21 112 -39
274 -133 354 -80 68 -126 79 -214 51z"/>
</g>
</svg>
